<svg width="38" height="24" viewBox="0 0 38 24" fill="none" xmlns="http://www.w3.org/2000/svg">
<path d="M23.25 12C23.25 18.2132 18.2132 23.25 12 23.25C5.7868 23.25 0.75 18.2132 0.75 12C0.75 5.7868 5.7868 0.75 12 0.75C18.2132 0.75 23.25 5.7868 23.25 12Z" stroke="#161616" stroke-width="1.5"/>
<path d="M16.75 12C16.75 15.2311 16.1482 18.1199 15.2073 20.1728C14.2363 22.2912 13.0471 23.25 12 23.25C10.9529 23.25 9.76366 22.2912 8.79271 20.1728C7.85179 18.1199 7.25 15.2311 7.25 12C7.25 8.76892 7.85179 5.88013 8.79271 3.82721C9.76366 1.70877 10.9529 0.75 12 0.75C13.0471 0.75 14.2363 1.70877 15.2073 3.82721C16.1482 5.88013 16.75 8.76892 16.75 12Z" stroke="#161616" stroke-width="1.5"/>
<path d="M1 11.25H23V12.75H1V11.25Z" fill="#161616"/>
<path d="M31 11L34 14L37 11" stroke="black" stroke-width="1.5"/>
</svg>
