<?xml version="1.0" encoding="utf-8"?>
<!-- Generator: Adobe Illustrator 24.1.1, SVG Export Plug-In . SVG Version: 6.00 Build 0)  -->
<svg version="1.1" id="Layer_1" xmlns="http://www.w3.org/2000/svg" xmlns:xlink="http://www.w3.org/1999/xlink" x="0px" y="0px"
	 viewBox="0 0 485 81.6" style="enable-background:new 0 0 485 81.6;" xml:space="preserve">
<style type="text/css">
	.st0{fill:#FFFFFF;}
</style>
<g>
	<g>
		<path class="st0" d="M157.5,79l-9.1-9.9h-0.7V79h-4.5V52.3h5.6c5,0,11.3,1.2,11.3,8.3c0,3.7-2.9,7.2-7,7.9l10.6,10.6L157.5,79
			L157.5,79z M149.5,65.2c4,0,5.9-2.1,5.9-4.4c0-2.9-1.8-4.4-5.6-4.4h-2.1v8.8H149.5L149.5,65.2z"/>
		<polygon class="st0" points="178.3,79 178.3,52.4 193.8,52.4 193.8,56.5 182.9,56.5 182.9,62.8 191.7,62.8 191.7,66.9 182.9,66.9 
			182.9,74.9 194.9,74.9 194.9,79 		"/>
		<path class="st0" d="M211.9,72.6c1.3,1.2,3.7,2.9,6.8,2.9c2.8,0,4.4-1.4,4.4-3.6c0-3.1-2.5-4-5.1-5.4c-3.4-1.8-6.8-3.6-6.8-7.8
			c0-4.6,4.3-7.2,8.7-7.2c4,0,6.7,2.3,7.3,3l-2.2,3.4c-1.3-1.3-3.1-2.3-5-2.3c-1.9,0-4,0.9-4,2.9c0,5.1,12,3.8,12,13.2
			c0,4-3.5,7.7-9.5,7.7c-3.8,0-7.6-2.3-8.9-3.7L211.9,72.6L211.9,72.6z"/>
		<path class="st0" d="M257.1,79.7c-8.1,0-14.5-6.3-14.5-13.9s6.5-13.9,14.5-13.9c8.1,0,14.4,6,14.4,14.1
			C271.6,73.4,265,79.7,257.1,79.7 M257.1,55.9c-5.4,0-9.8,4.3-9.8,9.8c0,5.2,4.3,10,9.5,10c5.6,0,9.9-4.3,9.9-9.8
			S262.4,55.9,257.1,55.9"/>
		<path class="st0" d="M300.5,79l-9.1-9.9h-0.7V79h-4.5V52.3h5.6c4.9,0,11.3,1.2,11.3,8.3c0,3.7-2.9,7.2-7,7.9l10.6,10.6L300.5,79
			L300.5,79z M292.5,65.2c4,0,5.9-2.1,5.9-4.4c0-2.9-1.8-4.4-5.6-4.4h-2.1v8.8H292.5z"/>
		<polygon class="st0" points="329.2,79 329.2,56.5 321.4,56.5 321.4,52.4 341.6,52.4 341.6,56.5 333.8,56.5 333.8,79 		"/>
	</g>
	<g>
		<polygon class="st0" points="101.3,39.3 101.3,9.2 90.8,9.2 90.8,3.8 117.8,3.8 117.8,9.2 107.3,9.2 107.3,39.3 		"/>
		<polygon class="st0" points="146.3,39.3 146.3,23.9 129.4,23.9 129.4,39.3 123.4,39.3 123.4,3.7 129.4,3.7 129.4,18.4 146.3,18.4 
			146.3,3.7 152.3,3.7 152.3,39.3 		"/>
		<polygon class="st0" points="161.2,39.3 161.2,3.8 182.7,3.8 182.7,9.2 167.2,9.2 167.2,17.7 180.3,17.7 180.3,23.1 167.2,23.1 
			167.2,33.8 183.3,33.8 183.3,39.3 		"/>
		<polygon class="st0" points="223.7,39.3 223.7,23.9 206.9,23.9 206.9,39.3 200.9,39.3 200.9,3.7 206.9,3.7 206.9,18.4 223.7,18.4 
			223.7,3.7 229.8,3.7 229.8,39.3 		"/>
		<polygon class="st0" points="238.6,39.3 238.6,3.8 260.1,3.8 260.1,9.2 244.7,9.2 244.7,17.7 257.8,17.7 257.8,23.1 244.7,23.1 
			244.7,33.8 260.8,33.8 260.8,39.3 		"/>
		<path class="st0" d="M293,39.3l-3.2-7h-16.5l-3.2,7h-6.7l18.2-37.1l18.2,37.1H293z M282.1,15.8c-0.2-0.5-0.6-1.3-0.6-1.7
			c-0.1,0.4-0.5,1.2-0.7,1.7l-5.1,11.1h11.5L282.1,15.8z"/>
		<path class="st0" d="M293.8,3.7h6.7l10.6,23.9c0.2,0.4,0.2,1,0.3,1.6c0.1-0.7,0.1-1.3,0.3-1.6l10.2-23.9h6.7l-17.4,37.5L293.8,3.7
			z"/>
		<polygon class="st0" points="332.6,39.3 332.6,3.8 354,3.8 354,9.2 338.6,9.2 338.6,17.7 351.7,17.7 351.7,23.1 338.6,23.1 
			338.6,33.8 354.7,33.8 354.7,39.3 		"/>
		<polygon class="st0" points="367.5,16.8 367.6,39.3 361.6,39.3 361.6,2.7 388.1,27.1 388,3.7 394,3.7 393.9,40.7 		"/>
	</g>
</g>
</svg>
